<svg xmlns="http://www.w3.org/2000/svg" width="33.334" height="43.297" viewBox="0 0 33.334 43.297">
  <g id="Group_13589" data-name="Group 13589" transform="translate(545.902 366.55)">
    <rect id="Rectangle_4991" data-name="Rectangle 4991" width="22" height="22" transform="translate(-538 -358)" fill="#fff" opacity="0"/>
    <g id="Group_13588" data-name="Group 13588" transform="translate(-150.637 40.454)">
      <path id="Path_10528" data-name="Path 10528" d="M292.995,200.533a.669.669,0,0,1,.017-.091C293.011,200.46,293,200.491,292.995,200.533Z" transform="translate(-670.086 -581.581)" fill="#fff"/>
      <path id="Path_10533" data-name="Path 10533" d="M274.565,171.159c-.111,0-.221,0-.334,0a.476.476,0,0,1-.07,0l-.011-.048-.189-.8-.036-.154-.016-.069-.6-2.554-.031-.135-.135-.573.564-.02h.009l.427-.015,1.5-.052h0l.359-.012.366-.013.936-.034.077.014,1.516.265.185.034.055.008.265.047,0,0,.087.153.038.066s0,0,0,0l0,0,.161.281.038.067.527.914s.067.076.181.213.31.381.522.664a.1.1,0,0,1,.016.022c.029.038.058.076.088.118-.022.012-.044.023-.068.033l0,0h0a16.871,16.871,0,0,1-1.887.767,15.248,15.248,0,0,1-2.3.588c-.064.012-.128.023-.194.032A14.259,14.259,0,0,1,274.565,171.159Z" transform="translate(-652.538 -551.733)" fill="#fff"/>
      <path id="Path_10534" data-name="Path 10534" d="M340.843,188.447a.742.742,0,0,1-.076.037l.059.141-.073-.133c-.032.016-.064.033-.1.048s-.044.022-.068.033l-.032-.049-.008-.013.02-.089.044-.194v0l.017-.072,0,0C340.643,188.172,340.719,188.274,340.843,188.447Z" transform="translate(-712.123 -570.718)" fill="#fff"/>
      <path id="Path_10535" data-name="Path 10535" d="M329.465,168.254a.733.733,0,0,1-.076.037l.06.141-.073-.133-.142-.265v0l-.044-.079-.122-.228-1.347-2.341-.042-.072h.005l.039.006a10.806,10.806,0,0,1,2.281.586c.277.239-.182.589-.182.589.05.032.1.061.149.091l.109.068.289.184c.138.087.3.189.472.3l.009,0c.155.1.321.212.5.329a3.307,3.307,0,0,0-1.12.382c-.091.05-.186.1-.285.156C329.79,168.092,329.631,168.173,329.465,168.254Z" transform="translate(-700.746 -550.525)" fill="#fff"/>
      <path id="Path_10536" data-name="Path 10536" d="M342.225,177.836s-.647.126-.843.523a.984.984,0,0,0-.066.344c-.149.079-.308.161-.474.242a.748.748,0,0,1-.076.037l.059.141-.073-.133c-.032.016-.064.033-.1.048s-.044.022-.068.033l0,0-.028-.051-.008-.013s0-.04,0-.111.008-.152.015-.254c.031-.436.111-1.123.307-1.216.226-.108.907.193,1.208.336.067.032.115.056.135.067Z" transform="translate(-712.123 -561.216)" fill="#fff" opacity="0.6" style="mix-blend-mode: multiply;isolation: isolate"/>
      <path id="Path_10537" data-name="Path 10537" d="M274.565,169.95l-.335-1.027-.111-.336-.039-.118-.683-2.082-.066-.2-.188-.571.554-.027h.007l.432-.021,1.476-.07h0l.359-.017.381-.019.892-.043.192-.009.581-.028.845-.041.115,0,.114,0,.374-.019.04.094.934,2.138.126.287v0s-.823.7-1.46,1.316a15.252,15.252,0,0,1-2.3.588c-.064.012-.128.023-.194.032A14.257,14.257,0,0,1,274.565,169.95Z" transform="translate(-652.538 -550.525)" fill="#fff" opacity="0.59" style="mix-blend-mode: multiply;isolation: isolate"/>
      <path id="Path_10538" data-name="Path 10538" d="M238.92,191.932a14.826,14.826,0,0,1-1.843-.62.142.142,0,0,0,.012-.022,6.582,6.582,0,0,1,.334-.57l.006-.009,0-.009a.007.007,0,0,0,.005,0,7.719,7.719,0,0,1,2.131.7,1.893,1.893,0,0,1,.356.262,4.032,4.032,0,0,1,.452.567c-.126-.019-.25-.04-.379-.064Q239.467,192.077,238.92,191.932Z" transform="translate(-620.652 -572.971)" fill="#fff"/>
      <path id="Path_10539" data-name="Path 10539" d="M239.014,191.932a5.977,5.977,0,0,0-1.83-.642l.334-.57.006-.009,0-.009a.006.006,0,0,0,.005,0l.22.073a.043.043,0,0,1,.014,0l.428.141.007,0,1.462.483a1.892,1.892,0,0,1,.356.262,4.031,4.031,0,0,1,.452.567c-.126-.019-.25-.04-.379-.064Q239.562,192.077,239.014,191.932Z" transform="translate(-620.747 -572.971)" fill="#fff" opacity="0.41" style="mix-blend-mode: multiply;isolation: isolate"/>
      <path id="Path_10540" data-name="Path 10540" d="M240.672,172.522c-.126-.019-.25-.04-.379-.064a1.679,1.679,0,0,0-.267-.293,5.29,5.29,0,0,0-.482-.367c-.065-.044-.129-.085-.191-.123a6.151,6.151,0,0,0-.552-.295c-.144-.068-.279-.123-.4-.171l-.007,0c-.182-.069-.331-.114-.428-.141a.044.044,0,0,0-.014,0c-.074-.021-.115-.03-.115-.03a.634.634,0,0,1-.1-.043.006.006,0,0,1-.005,0,.512.512,0,0,1-.315-.532c.021-.163.491-.485,1.077-.827l0,0c.249-.145.519-.294.784-.438,0,0,0,0,0,0,.8-.427,1.553-.788,1.553-.788l.723.531,0,0,.163.12.087.064.638.467s.381.283.834.655a11.643,11.643,0,0,1,1.178,1.077.1.1,0,0,0,.013.015,2.142,2.142,0,0,1,.2.262c.006.007.008.012.012.017a.005.005,0,0,1,0,0c.149.242.322.492.528.853-.064.012-.128.023-.194.032a14.259,14.259,0,0,1-2.047.182c-.11,0-.221,0-.334,0a.478.478,0,0,1-.07,0c-.3,0-.6-.018-.907-.042-.2-.017-.41-.037-.619-.063C240.92,172.558,240.8,172.541,240.672,172.522Z" transform="translate(-620.945 -553.257)" fill="#fff"/>
      <path id="Path_10541" data-name="Path 10541" d="M241.042,188.235c-.122-.016-.246-.033-.371-.052s-.25-.04-.379-.064a1.678,1.678,0,0,0-.267-.293v0a4.963,4.963,0,0,0-.481-.365c-.065-.044-.129-.085-.191-.123a5.393,5.393,0,0,0-.552-.295c-.144-.068-.279-.124-.4-.171l-.007,0c-.182-.069-.331-.114-.428-.141a.044.044,0,0,0-.014,0c-.074-.021-.115-.03-.115-.03a.636.636,0,0,1-.1-.043.006.006,0,0,1-.005,0,.512.512,0,0,1-.315-.532A8.158,8.158,0,0,1,241.042,188.235Z" transform="translate(-620.945 -568.918)" fill="#fff" opacity="0.41" style="mix-blend-mode: multiply;isolation: isolate"/>
      <path id="Path_10542" data-name="Path 10542" d="M326.533,168.321a13.028,13.028,0,0,1,.427-1.589c.1-.12.979.574,1.142.386a20.493,20.493,0,0,0-3.061-1.8s-.359.383-.345.575A29.407,29.407,0,0,0,326.533,168.321Z" transform="translate(-698.109 -550.529)" fill="#fff"/>
      <path id="Path_10543" data-name="Path 10543" d="M280.3,146.432s.012.38-.024.854a5.1,5.1,0,0,1-.19,1.092h0a1.03,1.03,0,0,1-.49.691c-.513.2-2.452-1.012-3.72-1.87h0l-.021-.014c-.536-.364-.95-.659-1.079-.753l-.043-.031.16-2.494,1.274.99Z" transform="translate(-653.942 -531.603)" fill="#fff"/>
      <path id="Path_10544" data-name="Path 10544" d="M280.468,146.459l-.04.107-.153.209c-1.392,1.133-2.659-.119-3.018-.276a6.261,6.261,0,0,0-1.38-.219h0l-.021-.014-1.079-.753-.043-.031.167-2.614,1.267,1.111,1.216.983,2.9,1.406Z" transform="translate(-653.942 -530.683)" fill="#fff"/>
      <path id="Path_10545" data-name="Path 10545" d="M295.19,190.888c-.239-.381-.413-.605-.45-.659l.6.653.017.021,0,0,0,0a.005.005,0,0,1,0,0c.149.242.322.492.528.853-.064.012-.128.023-.194.032C295.516,191.432,295.339,191.128,295.19,190.888Z" transform="translate(-671.628 -572.552)" fill="#fff"/>
      <path id="Path_10546" data-name="Path 10546" d="M280.987,185.556a11.482,11.482,0,0,0-1.583-.1,1.674,1.674,0,0,0-.93.5s.563-1.658.99-1.771S280.987,185.556,280.987,185.556Z" transform="translate(-657.249 -567.2)" fill="#fff" opacity="0.6" style="mix-blend-mode: multiply;isolation: isolate"/>
      <g id="Group_3942" data-name="Group 3942" transform="translate(-381.128 -395.827)">
        <path id="Path_10547" data-name="Path 10547" d="M267.461,77.838a1.715,1.715,0,0,1,.476-1.576l-.052.56a18.154,18.154,0,0,1,2.891-2.369A4.684,4.684,0,0,1,273.4,73.8a7.015,7.015,0,0,0-1.444.684c-.193.224-2.38,1.569-2.38,1.569Z" transform="translate(-266.349 -73.789)" fill="#fff"/>
        <path id="Path_10548" data-name="Path 10548" d="M262.647,128.771l-.169-.705-.035-.141-.038-.161-.025-.1-.324-.282a3.127,3.127,0,0,0-.438-.391c.035.052.073.1.108.154h0c.169.24.333.469.458.64l.016.023c.01.013.019.027.029.038a.172.172,0,0,1,.016.023s0,0,0,0c.016.022.031.042.043.06-.273-.156-.959-.518-1.264-.418a.341.341,0,0,0-.26.449s.012-.369.461-.253a2.572,2.572,0,0,1,.757.445,1.481,1.481,0,0,1-.106.5c-.114.261-.47.149-.526.13.057.029.484.233.731.106a.575.575,0,0,0,.239-.449c.077.066.122.109.122.109l-.033-.449h0c.007.071.018.179.035.312,0,.026.006.054.01.084a8.8,8.8,0,0,0,.177.951,1.076,1.076,0,0,0,.049-.334c0-.037,0-.072,0-.1A1.638,1.638,0,0,0,262.647,128.771Zm-.769-1.135-.188-.335s-.4-.408-.746-.382-.339.811-.339.811a.894.894,0,0,1,.437-.355C261.31,127.3,261.878,127.635,261.878,127.635Z" transform="translate(-260.323 -120.755)" fill="#fff"/>
        <path id="Path_10549" data-name="Path 10549" d="M325.274,95.775s0,.16,0,.408c0,.077,0,.162,0,.253a8.137,8.137,0,0,1-.254,2.3l-.7-1.082-.122-.187.573-.893Z" transform="translate(-316.533 -93.225)" fill="#fff"/>
        <path id="Path_10550" data-name="Path 10550" d="M280.934,101.716c-.092.109-.181.208-.259.3a2.325,2.325,0,0,0-.393.857c.014.2.451.61.393.895a12.774,12.774,0,0,1-.622,1.42,1.21,1.21,0,0,1-.044.665,1.493,1.493,0,0,1-1.284,1.025c-.883.065-3.513-2.437-3.7-2.826a5.394,5.394,0,0,1-.213-.828c-.115-.55-.244-1.261-.343-1.817-.089-.511-.153-.888-.153-.888l.085-.038c.555-.238,3.659-1.55,4.512-1.406.919.155,1.515,1.107,1.809,1.825A1.92,1.92,0,0,1,280.934,101.716Z" transform="translate(-272.447 -96.131)" fill="#fff"/>
        <path id="Path_10551" data-name="Path 10551" d="M320.556,126.226s-.1.073-.368-.055-.36-.6-.361-.612a1.018,1.018,0,0,1,.2-.352,2.724,2.724,0,0,1,.762.083,3.866,3.866,0,0,0-.277.643A.565.565,0,0,0,320.556,126.226Z" transform="translate(-312.678 -119.231)" fill="#fff"/>
        <path id="Path_10552" data-name="Path 10552" d="M298.1,122.189a2.686,2.686,0,0,1,.89-.515,7.856,7.856,0,0,1,1.084-.079,3.512,3.512,0,0,1-.587,1.017c-.041-.056-.146-.358-.307-.4a1.957,1.957,0,0,0-.574.026A.517.517,0,0,0,298.1,122.189Z" transform="translate(-293.474 -116.04)" fill="#fff"/>
        <path id="Path_10553" data-name="Path 10553" d="M298.643,130.393a2.072,2.072,0,0,1-.831.393c-.235.033-.494-.278-.494-.278A3.781,3.781,0,0,0,298.643,130.393Z" transform="translate(-292.779 -123.829)" fill="#fff"/>
        <path id="Path_10554" data-name="Path 10554" d="M311.831,143.676a1.809,1.809,0,0,1-.73-.064,1.776,1.776,0,0,0-.833.022s.065.36.224.337.437-.19.508-.129a.682.682,0,0,0,.4.14C311.538,143.971,311.942,143.712,311.831,143.676Z" transform="translate(-304.227 -135.473)" fill="#fff"/>
        <path id="Path_10555" data-name="Path 10555" d="M309.379,157.36c-.028-.1.143-.2.266-.245s.766-.17.888-.065.209.259.084.4S309.442,157.594,309.379,157.36Z" transform="translate(-303.438 -147.359)" fill="#fff"/>
        <path id="Path_10556" data-name="Path 10556" d="M305.347,150.214a1.352,1.352,0,0,0,.58-.27,1.907,1.907,0,0,1,1.307-.26c.169.146-.045.395-.045.395s-.03-.148-.333-.125-.874.384-1.124.353A1.407,1.407,0,0,1,305.347,150.214Z" transform="translate(-299.877 -140.842)" fill="#fff"/>
        <path id="Path_10557" data-name="Path 10557" d="M291.833,116.992a2.215,2.215,0,0,0,.9-.421,3.383,3.383,0,0,1-.705.2l.368-.293s-1.56-.411-1.9-.43-1.14.571-1.14.571a8.787,8.787,0,0,1,.975-.051C290.8,116.59,291.511,116.975,291.833,116.992Z" transform="translate(-285.746 -111.145)" fill="#fff"/>
        <path id="Path_10558" data-name="Path 10558" d="M321.059,121.372a2.3,2.3,0,0,1,.357-.519l-.112.2a2.819,2.819,0,0,1,.477-.267s-.032,0-.138.167c0,0,.118,0,.612-.032,0,0-.077.371-.287.452A4.894,4.894,0,0,1,321.059,121.372Z" transform="translate(-313.767 -115.339)" fill="#fff"/>
        <path id="Path_10559" data-name="Path 10559" d="M313.269,125.086a2.974,2.974,0,0,0-.219.384,5.006,5.006,0,0,1,.485,1.87s-.088.25-.619.23a1.833,1.833,0,0,0-.72.065,1.965,1.965,0,0,1,.684-.012c.318.065.694-.016.771-.159a5.533,5.533,0,0,0-.528-1.989Z" transform="translate(-305.932 -119.137)" fill="#fff"/>
        <g id="Group_3940" data-name="Group 3940" transform="translate(7.183 6.017)">
          <path id="Path_10560" data-name="Path 10560" d="M320.836,126.977s.477-.384.623-.326c.089.035.016.295.016.295a.488.488,0,0,1-.274.319C321,127.327,320.836,126.977,320.836,126.977Z" transform="translate(-320.752 -126.532)" fill="#fff"/>
          <path id="Path_10561" data-name="Path 10561" d="M320.115,126.123a3.3,3.3,0,0,1,.693-.443c.221-.064.114.3.114.3a.155.155,0,0,0-.177-.1,2.347,2.347,0,0,0-.546.239Z" transform="translate(-320.115 -125.672)" fill="#fff"/>
          <path id="Path_10562" data-name="Path 10562" d="M321.071,126.721s.046.411-.164.579l.185-.047a.326.326,0,0,1-.255.1.361.361,0,0,1-.231-.056l-.1-.283A4.118,4.118,0,0,1,321.071,126.721Z" transform="translate(-320.46 -126.599)" fill="#fff"/>
        </g>
        <g id="Group_3941" data-name="Group 3941" transform="translate(4.305 5.897)">
          <path id="Path_10563" data-name="Path 10563" d="M297.8,126.989s-.114-.409-.37-.39a9.9,9.9,0,0,0-1.192.331,1.211,1.211,0,0,0,.478.241A2.872,2.872,0,0,0,297.8,126.989Z" transform="translate(-296.129 -126.371)" fill="#fff"/>
          <path id="Path_10564" data-name="Path 10564" d="M295.3,125.368s.769-.146,1.143-.234a2.371,2.371,0,0,0,.6-.256,1.045,1.045,0,0,0-.312-.08A9.92,9.92,0,0,1,295.3,125.368Z" transform="translate(-295.302 -124.779)" fill="#fff"/>
          <path id="Path_10565" data-name="Path 10565" d="M305.595,126.66s-.072-.471-.273-.5a.987.987,0,0,0-.313.055.723.723,0,0,1,.28.036C305.469,126.322,305.595,126.66,305.595,126.66Z" transform="translate(-303.883 -125.986)" fill="#fff"/>
          <path id="Path_10566" data-name="Path 10566" d="M296.238,127.284a.521.521,0,0,0,.314.21.738.738,0,0,0,.567-.1,1.431,1.431,0,0,0,.139-.4Z" transform="translate(-296.129 -126.726)" fill="#fff"/>
          <path id="Path_10567" data-name="Path 10567" d="M297.318,131.03s.445,0,.75-.024l.3-.022a4.046,4.046,0,0,1-.576.1A1.388,1.388,0,0,1,297.318,131.03Z" transform="translate(-297.084 -130.248)" fill="#fff"/>
          <path id="Path_10568" data-name="Path 10568" d="M296.105,124.99a4.843,4.843,0,0,1,1.195-.245l.285-.065S297.26,124.477,296.105,124.99Z" transform="translate(-296.012 -124.641)" fill="#fff"/>
        </g>
        <path id="Path_10569" data-name="Path 10569" d="M312.594,145.323a1.975,1.975,0,0,1,.482-.211c.137-.01.137.165.137.165A4.923,4.923,0,0,0,312.594,145.323Z" transform="translate(-306.283 -136.841)" fill="#fff"/>
        <path id="Path_10570" data-name="Path 10570" d="M304.049,151.942a2.471,2.471,0,0,0,.447.1c.26.012.98-.413,1.324-.4.3.009.212.347.212.347a.215.215,0,0,0-.248-.236,13.126,13.126,0,0,1-1.284.381.647.647,0,0,1-.45-.192Z" transform="translate(-298.729 -142.614)" fill="#fff"/>
        <path id="Path_10571" data-name="Path 10571" d="M311.7,155.977s.727-.249.8-.255.086.19.086.19Z" transform="translate(-305.49 -146.221)" fill="#fff"/>
        <path id="Path_10572" data-name="Path 10572" d="M280.5,100.921l.073-.523-.475.272a1.993,1.993,0,0,0-1.732-.647,2.7,2.7,0,0,0-1.721,1.886,1.756,1.756,0,0,0,.464,1.479,16.094,16.094,0,0,1,1.138,2.111l-2.78-2.278-.224-.192-.187-2.551c.555-.238,3.659-1.55,4.512-1.406.919.155,1.515,1.107,1.809,1.825Z" transform="translate(-273.095 -96.131)" fill="#fff"/>
        <path id="Path_10573" data-name="Path 10573" d="M282.15,137.678q-.057-.051-.1-.1c-.038-.036-.07-.069-.1-.095a.293.293,0,0,0-.023-.023c-.019-.021-.034-.034-.04-.041l.277.139,0,0s0,0,0,0a.192.192,0,0,1-.038-.066,2.157,2.157,0,0,1,.017-.587c0-.007,0-.014,0-.021a.521.521,0,0,1,0-.053v-.012a2.782,2.782,0,0,0-.395-1.5l-.1-.074-.021-.016a.833.833,0,0,0-.247-.335l.238.035a1.578,1.578,0,0,0-.725-.191c-.321.027-1.175.177-1.175.177a3.035,3.035,0,0,1,.535.042c-.194.014-.87.078-.87.078a3.661,3.661,0,0,1-.5-.105c-.106-.031-.223-.068-.344-.114a2.3,2.3,0,0,1-.846-.528,11.994,11.994,0,0,0-1.057-.963c-.117-.1-.211-.169-.265-.209l-.052-.04-.053.1-.071.13-.037.068-.039.071s0,.037.009.1.018.179.035.312c0,.026.006.054.01.084a8.8,8.8,0,0,0,.177.951,3.676,3.676,0,0,0,.3.836,3.607,3.607,0,0,0,1.266,1.252,3.5,3.5,0,0,1-.422-.82,3.265,3.265,0,0,1,.367.38c.035.041.071.086.108.134.019.023.039.048.058.073h0v0c.06.076.125.156.2.24l.017.02.027.031.032.034c.027.03.055.059.085.089.015.015.03.029.045.042a.543.543,0,0,0,.047.046q.074.068.157.136c.013.011.028.024.043.035.047.037.1.074.148.11s.1.065.148.1.132.08.2.119l.111.058c.037.02.076.038.116.056a0,0,0,0,0,0,0c.047.023.1.044.147.066h0c.053.022.105.045.159.066a3.327,3.327,0,0,0,1.418.17c.054,0,.108-.01.162-.015q.11-.011.209-.026c.061-.01.121-.019.177-.031l.088-.017.085-.017.014,0c.055-.013.105-.024.154-.036.228-.057.366-.106.366-.106C282.314,137.832,282.227,137.753,282.15,137.678Zm-2.209-2.3-.024.039-.086.041a4.842,4.842,0,0,1,1.175-.305,4.186,4.186,0,0,1,.45.058l.048.007a2.409,2.409,0,0,1-.232.952c-.035.045-.074.065-.114.045a.583.583,0,0,1-.254-.255l-.212.005a1.34,1.34,0,0,1-.281.28.69.69,0,0,1-.178.09h0a.162.162,0,0,1-.041.012.416.416,0,0,1-.405-.091,1.049,1.049,0,0,1-.093-.093,6.276,6.276,0,0,1-.563-.812A1.452,1.452,0,0,0,279.94,135.381Z" transform="translate(-274.038 -126.192)" fill="#fff"/>
        <path id="Path_10574" data-name="Path 10574" d="M261.6,109.493c.046-.381-.625-.677-.759-.729a.912.912,0,0,1,.467.642,2.767,2.767,0,0,1-.383,1.558.659.659,0,0,0-.107.173.993.993,0,0,0-.04.6l-.124.053-.08.034-.16.066-.078.034-.065.028h0s-.039-.051-.1-.14a.221.221,0,0,1-.018-.025h0c-.012-.018-.027-.038-.043-.06v0c-.006-.007-.012-.015-.018-.023s-.019-.025-.029-.038l-.016-.023c-.125-.172-.289-.4-.458-.64h0c-.035-.05-.072-.1-.108-.154-.127-.182-.253-.366-.362-.53a2.718,2.718,0,0,1-.34-.6,1.313,1.313,0,0,1,.193-.572,3.236,3.236,0,0,0-.786.321c.064-.066.776-.782,1.111-.806a12.59,12.59,0,0,1,1.323.066l.025,0,.007,0,.1-.019c.22-.044.729-.108.875.176A.7.7,0,0,1,261.6,109.493Z" transform="translate(-258.177 -104.616)" fill="#fff"/>
        <path id="Path_10575" data-name="Path 10575" d="M323.509,86.4a2.337,2.337,0,0,1-.17.375A5.953,5.953,0,0,1,322.38,88c-.217.221-.375.358-.375.358s.035-.7.014-.985a.773.773,0,0,1,0-.088c0-.05.012-.118.023-.2.093-.682.405-2.237.405-2.237a3.308,3.308,0,0,1,.345.169,2.191,2.191,0,0,1,.625.486A.9.9,0,0,1,323.509,86.4Z" transform="translate(-314.603 -83.569)" fill="#fff"/>
        <path id="Path_10576" data-name="Path 10576" d="M274.843,77.538c0,.019,0,.037,0,.058a5.812,5.812,0,0,1-.6,1.887c-.058.131-.117.258-.174.378-.24.507-.445.885-.445.885a.029.029,0,0,0,0-.006c-.042-.1-.634-1.466-.8-1.466a15.069,15.069,0,0,0-3.709.986l-1.347-.067.022-.492c.024-.491,3.708-3.259,5.029-3.248C273.732,76.459,274.792,76.959,274.843,77.538Z" transform="translate(-266.655 -76.144)" fill="#fff"/>
        <path id="Path_10577" data-name="Path 10577" d="M303.981,130.981a3.943,3.943,0,0,1-.8.558A1.746,1.746,0,0,0,303.981,130.981Z" transform="translate(-297.959 -124.349)" fill="#fff"/>
        <path id="Path_10578" data-name="Path 10578" d="M321.563,132.684s.213.232.413.416l-.3-.2Z" transform="translate(-314.212 -125.854)" fill="#fff"/>
        <path id="Path_10579" data-name="Path 10579" d="M303.1,129.006c0,.028-.094.058-.214.066s-.22-.007-.222-.034.094-.057.214-.066S303.1,128.979,303.1,129.006Z" transform="translate(-297.508 -122.57)" fill="#fff"/>
        <path id="Path_10580" data-name="Path 10580" d="M323.629,129.652c0,.023-.067.047-.153.053s-.157-.007-.159-.03.067-.047.153-.053S323.628,129.629,323.629,129.652Z" transform="translate(-315.763 -123.146)" fill="#fff"/>
        <path id="Path_10581" data-name="Path 10581" d="M315.028,126.509l.327,1.505s.148.13.128-.133A4.18,4.18,0,0,0,315.028,126.509Z" transform="translate(-308.435 -120.395)" fill="#fff" style="mix-blend-mode: soft-light;isolation: isolate"/>
        <path id="Path_10582" data-name="Path 10582" d="M313.619,140.817c-.01-.135-.391-.159-.382-.033S313.625,140.9,313.619,140.817Z" transform="translate(-306.851 -132.942)" fill="#fff" style="mix-blend-mode: soft-light;isolation: isolate"/>
        <path id="Path_10583" data-name="Path 10583" d="M273.626,98.175c-.042-.1-.634-1.466-.8-1.466a15.069,15.069,0,0,0-3.709.986l-1.347-.067.022-.492s.135.3.988.371c1.038.081,3.876-1.307,4.213-1.332S273.6,98.048,273.626,98.175Z" transform="translate(-266.655 -93.578)" fill="#fff"/>
        <path id="Path_10584" data-name="Path 10584" d="M273.642,128.967s-.139.049-.366.106c-.048.012-.1.023-.154.036l-.014,0-.085.017-.088.017c-.057.011-.114.021-.177.031s-.136.019-.209.026c-.054.006-.108.011-.162.015a3.326,3.326,0,0,1-1.418-.17c-.054-.021-.107-.043-.159-.065h0c-.051-.023-.1-.044-.147-.066a0,0,0,0,1,0,0c-.04-.018-.08-.036-.116-.056s-.077-.038-.111-.058c-.071-.039-.139-.078-.2-.119s-.1-.064-.148-.1-.1-.073-.148-.11c-.015-.011-.03-.024-.043-.035q-.084-.068-.157-.136a.56.56,0,0,1-.047-.046l-.045-.042q-.045-.044-.085-.089l-.032-.034-.027-.031-.017-.02c-.075-.084-.14-.163-.2-.24v0c-.019-.025-.04-.05-.06-.073-.037-.048-.074-.093-.108-.134a3.264,3.264,0,0,0-.367-.38,3.5,3.5,0,0,0,.422.82,3.606,3.606,0,0,1-1.266-1.252,3.676,3.676,0,0,1-.3-.836,8.8,8.8,0,0,1-.177-.951c0-.03-.008-.057-.01-.083-.017-.132-.028-.24-.035-.312h0s-.039-.051-.1-.14a.213.213,0,0,1-.018-.025h0c-.012-.018-.027-.038-.043-.06,0,0,0,0,0,0a.18.18,0,0,0-.016-.023c-.01-.012-.019-.025-.029-.038l-.016-.023c-.125-.172-.289-.4-.458-.64h0c-.035-.05-.072-.1-.108-.154-.127-.182-.253-.366-.362-.53a4.552,4.552,0,0,0,1.163.541c.036.011.074.023.111.032h0a1.324,1.324,0,0,1,.429.246.993.993,0,0,0-.04.6,12,12,0,0,1,1.057.963,2.3,2.3,0,0,0,.846.528.685.685,0,0,1,.094.3c.047.263.092.658.162,1.057a4.615,4.615,0,0,0,.218.87,2.315,2.315,0,0,0,1.342,1.1,5.651,5.651,0,0,1-.731-1.04,2.166,2.166,0,0,0,1.077.716,1.88,1.88,0,0,0,1.223-.1,2.14,2.14,0,0,1-.334-1.157s.015.209.333.469a1.426,1.426,0,0,0,.239.532l0,.005-.277-.139c.006.007.021.019.04.041a.3.3,0,0,1,.023.023c.026.026.059.059.1.095s.064.064.1.1C273.475,128.819,273.562,128.9,273.642,128.967Z" transform="translate(-265.286 -117.259)" fill="#fff" opacity="0.76"/>
        <path id="Path_10585" data-name="Path 10585" d="M274.25,134.122c-.04-.018-.08-.036-.116-.056s-.077-.038-.111-.058c-.071-.039-.139-.078-.2-.118s-.1-.064-.148-.1-.1-.073-.148-.11a2.336,2.336,0,0,1-.2-.171.557.557,0,0,1-.047-.046l-.045-.042c-.03-.029-.059-.059-.085-.089l-.032-.034-.027-.031-.017-.02-.01-.011c-.07-.08-.134-.157-.191-.229l0,0c-.019-.025-.039-.05-.058-.073-.037-.048-.074-.093-.108-.134a3.265,3.265,0,0,0-.367-.38,3.5,3.5,0,0,0,.422.82,3.606,3.606,0,0,1-1.266-1.252,3.675,3.675,0,0,1-.3-.836,8.8,8.8,0,0,1-.177-.951c0-.03-.008-.057-.01-.084-.017-.132-.028-.24-.035-.312h0s-.039-.051-.1-.14a.179.179,0,0,1-.016-.023,0,0,0,0,1,0,0h0c-.012-.018-.027-.038-.043-.06v0h0a.175.175,0,0,0-.016-.023c-.014-.02-.029-.04-.045-.062-.125-.172-.289-.4-.458-.64.05.012.378.364.677.623a.373.373,0,0,1,.075.093.979.979,0,0,1,.076.175,6.356,6.356,0,0,0,.5,1.71c.39.489,1.342.8,1.546,1.321A5.647,5.647,0,0,0,274.25,134.122Z" transform="translate(-268.878 -122.467)" fill="#fff" opacity="0.82"/>
        <path id="Path_10586" data-name="Path 10586" d="M272.5,82.176a7.8,7.8,0,0,1,3.969-1.389c1.5-.075,1.806-.105,1.806-.105a3.669,3.669,0,0,0-1.7-.2,6.591,6.591,0,0,1,1.63-.315.759.759,0,0,1,.684.533s.135-.877-.568-.924a8.237,8.237,0,0,0-1.779.185,6.511,6.511,0,0,1,1.706-.429,4.243,4.243,0,0,0-2.523.009,9.475,9.475,0,0,0-3.185,2.232l1.093-.6Z" transform="translate(-270.841 -78.703)" fill="#fff" opacity="0.8" style="mix-blend-mode: soft-light;isolation: isolate"/>
      </g>
      <path id="Path_10587" data-name="Path 10587" d="M270.765,162.689s-1.008-1.226-1.4-1.2-1.117,1.59-1.117,1.59a14.59,14.59,0,0,1-1.2-2.924,6.823,6.823,0,0,1-.146-.684s.626-1.145.96-1.169c.256-.019.968,1.525,1.489,2.422h0a2.679,2.679,0,0,0,.406.577,6.5,6.5,0,0,1,1,1.38A0,0,0,0,1,270.765,162.689Z" transform="translate(-647.025 -544.331)" fill="#fff"/>
      <path id="Path_10588" data-name="Path 10588" d="M251.512,160.728a2.361,2.361,0,0,0-1.386-.734,1.523,1.523,0,0,0-.338.014,3.138,3.138,0,0,0-.58.151,7.673,7.673,0,0,1-1.664.52,4.854,4.854,0,0,1-.823.024c1-.586,2.341-1.228,2.341-1.228s.626-1.145.96-1.169C250.278,158.287,250.99,159.831,251.512,160.728Z" transform="translate(-629.178 -544.331)" fill="#fff" opacity="0.6" style="mix-blend-mode: multiply;isolation: isolate"/>
      <path id="Path_10589" data-name="Path 10589" d="M340.826,188.626l-.073-.133c-.032.016-.064.033-.1.048s-.044.022-.068.033l0,0h0l-.027-.051-.008-.013.02-.089.044-.194v0l.017-.072,0,0,.136.329Z" transform="translate(-712.123 -570.718)" fill="#fff"/>
      <path id="Path_10590" data-name="Path 10590" d="M273.913,201.048c-.3,0-.6-.018-.907-.042-.1-.256-.169-.46-.13-.5.053-.062.519.192,1.026.5l.081.048A.474.474,0,0,1,273.913,201.048Z" transform="translate(-652.29 -581.625)" fill="#fff" opacity="0.6" style="mix-blend-mode: multiply;isolation: isolate"/>
      <path id="Path_10591" data-name="Path 10591" d="M342.395,191.144l-.073-.133.013-.008Z" transform="translate(-713.692 -573.237)" fill="#fff"/>
      <path id="Path_10592" data-name="Path 10592" d="M288.28,147.226a2.54,2.54,0,0,0-1.968.6c-.7.761-1.441.9-1.782.156,0,0,.46,1.333,2.077.371s1.719-.7,1.719-.7Z" transform="translate(-662.602 -534.525)" fill="#fff"/>
      <path id="Path_10593" data-name="Path 10593" d="M316.734,146.731a.881.881,0,0,1,1.114.334c.47.658.877.7.957-.084,0,0-.064,1.379-1.041.644s-1-.464-1-.464Z" transform="translate(-691.072 -534.028)" fill="#fff"/>
      <path id="Path_10594" data-name="Path 10594" d="M300.284,148.177s-.905-.064-1.2.232a2.957,2.957,0,0,1-.889.7,6.73,6.73,0,0,0,1-.6,1.466,1.466,0,0,1,1.076-.209Z" transform="translate(-674.685 -535.372)" fill="#fff"/>
      <path id="Path_10595" data-name="Path 10595" d="M317.36,147.509a.687.687,0,0,1,.857.172,2.977,2.977,0,0,0,.529.53,4.823,4.823,0,0,1-.629-.5.673.673,0,0,0-.753-.155Z" transform="translate(-691.625 -534.714)" fill="#fff"/>
      <path id="Path_10596" data-name="Path 10596" d="M246.86,113.608c.161-.222.246-.4.09-.5a.883.883,0,0,0-.131-.064c-.071-.011-.142-.021-.21-.036s-.127-.026-.187-.042c-.045-.011-.089-.023-.132-.036l-.1-.03a3.134,3.134,0,0,1-.347-.134c-.04-.018-.078-.036-.116-.056l-.018-.009c-.04-.02-.078-.04-.117-.062s-.06-.034-.088-.051-.068-.041-.1-.063-.087-.057-.127-.087-.083-.059-.122-.089c-.093-.072-.179-.147-.262-.225-.038-.034-.074-.07-.11-.106-.076-.077-.146-.156-.214-.237a4.466,4.466,0,0,1-.491-.713c-.043-.078-.083-.154-.12-.228-.019-.037-.035-.073-.052-.11-.01-.019-.019-.037-.027-.054-.021-.048-.042-.093-.059-.138,0,0,0,0,0,0-.021-.049-.041-.1-.058-.145a.627.627,0,0,1-.026-.067l-.026-.068q-.014-.041-.027-.077c-.016-.05-.03-.094-.041-.132,0,0,0-.005,0-.009a.025.025,0,0,0,0-.01.356.356,0,0,0-.012-.045c-.012-.041-.021-.072-.024-.089a.054.054,0,0,0,0-.017l-.228.122C242.29,113.291,246.86,113.608,246.86,113.608Z" transform="translate(-626.068 -501.519)" fill="#fff"/>
      <path id="Path_10597" data-name="Path 10597" d="M251.265,120.877a4.719,4.719,0,0,1-.491-.713A4.465,4.465,0,0,0,251.265,120.877Z" transform="translate(-632.761 -510.613)" fill="#fff"/>
      <path id="Path_10598" data-name="Path 10598" d="M249.817,99.228c-.06.14-.106.234-.113.249a.9.9,0,0,0-.131-.064c-.071-.011-.142-.021-.21-.035s-.126-.026-.187-.042c-.045-.011-.089-.023-.132-.036l-.1-.03a3.151,3.151,0,0,1-.347-.134c-.04-.018-.078-.036-.116-.056l-.018-.009c-.04-.02-.078-.04-.117-.062s-.06-.034-.088-.051-.068-.041-.1-.063-.087-.057-.127-.087-.083-.059-.122-.089c-.093-.072-.179-.147-.262-.225-.038-.034-.074-.07-.11-.106-.076-.077-.147-.156-.214-.237a4.711,4.711,0,0,1-.491-.713c-.043-.078-.083-.154-.12-.228-.018-.037-.035-.073-.052-.11-.01-.019-.018-.037-.027-.054-.021-.048-.042-.093-.059-.138,0,0,0,0,0,0-.021-.049-.041-.1-.058-.145-.01-.024-.019-.046-.026-.067l-.026-.068c-.009-.027-.018-.053-.027-.077-.016-.05-.03-.094-.041-.132,0,0,0-.005,0-.009a.024.024,0,0,0,0-.01.346.346,0,0,0-.012-.045.643.643,0,0,0-.024-.09.054.054,0,0,0,0-.017.962.962,0,0,1-.024-.374c.051-.544.392-1.289.724-1.394.42-.134.758.448.758.448.015.041.032.082.049.121s.032.073.05.107.035.075.055.11q.07.132.15.252c.035.053.071.105.108.157l.006.007c.035.048.07.095.107.14a11.976,11.976,0,0,0,1.726,1.518C250.432,97.677,250.032,98.74,249.817,99.228Z" transform="translate(-628.821 -487.885)" fill="#fff"/>
      <path id="Path_10599" data-name="Path 10599" d="M250.774,120.164a4.465,4.465,0,0,0,.491.713A4.719,4.719,0,0,1,250.774,120.164Z" transform="translate(-632.761 -510.613)" fill="#fff"/>
      <path id="Path_10600" data-name="Path 10600" d="M262.9,78.81a4.285,4.285,0,0,0-1.841,1.558,2.014,2.014,0,0,1-.156.24c-.168.216-.269.206-.269.206a11.977,11.977,0,0,1-1.726-1.518c-.037-.045-.072-.091-.107-.14l-.006-.007c-.037-.052-.073-.1-.108-.157q-.08-.121-.15-.252c-.02-.035-.039-.073-.055-.11s-.033-.071-.05-.107-.034-.08-.049-.121a1.655,1.655,0,0,1-.1-.565,2.232,2.232,0,0,1,.762-1.751,1.765,1.765,0,0,1,.984-.319,1.935,1.935,0,0,1,.892.219,3.32,3.32,0,0,1,.873.64A3.059,3.059,0,0,1,262.9,78.81Z" transform="translate(-639.401 -471.364)" fill="#fff"/>
      <path id="Path_10601" data-name="Path 10601" d="M278.68,66.638a.99.99,0,0,0-1.221-.09,4.97,4.97,0,0,0-1.246.979,3.059,3.059,0,0,0-1.108-2.185,3.32,3.32,0,0,0-.873-.64,1.934,1.934,0,0,0-.892-.219,1.913,1.913,0,0,1,.1-.183,2.969,2.969,0,0,1,1.032-.986,2.38,2.38,0,0,1,2.264-.052,3.421,3.421,0,0,1,.8.51C277.807,64.006,279.325,65.332,278.68,66.638Z" transform="translate(-652.71 -460.082)" fill="#fff"/>
      <path id="Path_10602" data-name="Path 10602" d="M306.045,70.336s-.359-1.476-1.3-1.765v0a1,1,0,0,0-.154-.036c.645-1.306-.874-2.632-1.138-2.865a3.42,3.42,0,0,0-.8-.51,3.615,3.615,0,0,1,.567,0,3.669,3.669,0,0,1,3.218,2.053C307.528,69.546,306.045,70.336,306.045,70.336Z" transform="translate(-678.625 -461.976)" fill="#fff"/>
      <path id="Path_10603" data-name="Path 10603" d="M217.627,60.44a2.942,2.942,0,0,0-1.136,1.17,1.764,1.764,0,0,0-.984.319,2.235,2.235,0,0,0-.661,2.316s-.337-.583-.758-.448a1.946,1.946,0,0,0-.7,1.768l-.228.122c-.011-.122-.025-.242-.04-.36-.29-2.134-1.3-3.485-1.844-2.717-.578.813-3.83,3.11-1.278-.675,2.287-3.4,6.6-1.9,7.473-1.558C217.573,60.416,217.627,60.44,217.627,60.44Z" transform="translate(-595.861 -457.207)" fill="#fff"/>
      <path id="Path_10604" data-name="Path 10604" d="M304.748,68.568a1,1,0,0,0-.154-.036c.645-1.306-.874-2.632-1.138-2.865a3.42,3.42,0,0,0-.8-.51,3.615,3.615,0,0,1,.567,0A2.552,2.552,0,0,1,304.748,68.568Z" transform="translate(-678.625 -461.976)" fill="#fff"/>
      <path id="Path_10605" data-name="Path 10605" d="M276.213,77.071a3.059,3.059,0,0,0-1.108-2.185,3.321,3.321,0,0,0-.873-.64,1.935,1.935,0,0,0-.892-.219,1.915,1.915,0,0,1,.1-.183,1.892,1.892,0,0,1,1.63.454C276.258,75.151,276.515,76.64,276.213,77.071Z" transform="translate(-652.71 -469.625)" fill="#fff"/>
      <path id="Path_10606" data-name="Path 10606" d="M260.909,96.393c-.168.216-.269.206-.269.206a11.976,11.976,0,0,1-1.726-1.518c-.037-.045-.072-.091-.107-.14l-.006-.007c-.037-.052-.073-.1-.108-.157q-.08-.121-.15-.252c-.02-.035-.039-.073-.055-.11s-.033-.071-.05-.107-.034-.08-.049-.121a1.654,1.654,0,0,1-.1-.565,4.652,4.652,0,0,0,.663.908A8.2,8.2,0,0,0,260.909,96.393Z" transform="translate(-639.404 -487.15)" fill="#fff"/>
      <path id="Path_10607" data-name="Path 10607" d="M249.817,110.006c-.06.14-.106.234-.113.249a.9.9,0,0,0-.131-.064c-.071-.011-.142-.021-.21-.035s-.126-.026-.187-.042c-.045-.011-.089-.023-.132-.036l-.1-.03a3.149,3.149,0,0,1-.347-.134c-.04-.018-.078-.036-.116-.056l-.018-.009c-.04-.02-.078-.04-.117-.062s-.06-.034-.088-.051-.068-.041-.1-.063-.087-.057-.127-.087-.083-.059-.122-.089c-.093-.072-.179-.147-.262-.225-.038-.034-.074-.07-.11-.106-.076-.077-.147-.156-.214-.237a4.712,4.712,0,0,1-.491-.713c-.043-.078-.083-.154-.12-.228-.018-.037-.035-.073-.052-.11-.01-.019-.018-.037-.027-.054-.021-.048-.042-.093-.059-.138,0,0,0,0,0,0-.021-.049-.041-.1-.058-.145-.01-.024-.019-.046-.026-.067l-.026-.068c-.009-.027-.018-.053-.027-.077-.016-.05-.03-.094-.041-.132,0,0,0-.005,0-.009a.024.024,0,0,0,0-.01.346.346,0,0,0-.012-.045.644.644,0,0,0-.024-.09.054.054,0,0,0,0-.017.962.962,0,0,1-.024-.374,4.3,4.3,0,0,0,3.487,3.358Z" transform="translate(-628.821 -498.663)" fill="#fff"/>
      <path id="Path_10608" data-name="Path 10608" d="M248.777,65.193a2.942,2.942,0,0,0-1.136,1.17,1.764,1.764,0,0,0-.984.32A2.235,2.235,0,0,0,246,69s-.337-.583-.758-.448a1.946,1.946,0,0,0-.7,1.768l-.228.122c-.011-.122-.025-.242-.04-.36l.034-.02c.125-2.2,1.384-1.728,1.384-1.728a1.984,1.984,0,0,1,1.736-2.321,1.637,1.637,0,0,1,1.2-.881C248.723,65.169,248.777,65.193,248.777,65.193Z" transform="translate(-627.011 -461.96)" fill="#fff" opacity="0.6" style="mix-blend-mode: multiply;isolation: isolate"/>
      <path id="Path_10609" data-name="Path 10609" d="M269.75,79.676s.414-.356,1.3.295S270.439,79.8,269.75,79.676Z" transform="translate(-649.536 -474.734)" fill="#fff"/>
      <path id="Path_10610" data-name="Path 10610" d="M252.461,101.143s.546.006.783,1.081S252.9,101.689,252.461,101.143Z" transform="translate(-634.252 -493.797)" fill="#fff"/>
      <path id="Path_10611" data-name="Path 10611" d="M246.225,118.138s-.335.431.36,1.286S246.381,118.82,246.225,118.138Z" transform="translate(-628.668 -508.822)" fill="#fff"/>
      <path id="Path_10612" data-name="Path 10612" d="M292.621,66.231s.414-.356,1.3.295S293.31,66.352,292.621,66.231Z" transform="translate(-669.755 -462.848)" fill="#fff"/>
      <path id="Path_10613" data-name="Path 10613" d="M325.853,78.229s.541.073.645,1.169S326.22,78.825,325.853,78.229Z" transform="translate(-699.133 -473.541)" fill="#fff"/>
      <path id="Path_10614" data-name="Path 10614" d="M226.416,164.9a6.583,6.583,0,0,0-4.068-1.483c-2.055.107-4.014,1.633-8.769,2.759a7.067,7.067,0,0,1-4.255-.173h0c-3.874-1.491-4.906-6.506-4.906-6.506,2.515,3.667,4.057,5.225,11.678,3.014C223.617,160.331,226.35,164.79,226.416,164.9Z" transform="translate(-591.779 -545.387)" fill="#fff"/>
      <path id="Path_10615" data-name="Path 10615" d="M239.461,187.767c-2.96-1.2-3.7-1.188-8.666,2.1-4.911,3.249-10.78-.431-10.908-.511a8.56,8.56,0,0,0,4.941.32h0c4.525-.83,9.28-3.835,10.46-3.852a4.672,4.672,0,0,1,.956.084.073.073,0,0,1,.019,0A6.1,6.1,0,0,1,239.461,187.767Z" transform="translate(-605.456 -568.653)" fill="#fff"/>
      <path id="Path_10621" data-name="Path 10621" d="M259.983,185.648a4.676,4.676,0,0,0-.956-.084c-1.18.017-5.935,3.023-10.46,3.852h0a6.224,6.224,0,0,1-1.827-.4c1.539.375,7.4-1.518,9.217-2.711A5.659,5.659,0,0,1,259.983,185.648Z" transform="translate(-629.193 -568.398)" fill="#fff"/>
      <path id="Path_10623" data-name="Path 10623" d="M262.832,220.365s-2.844,1.313-5.183.682A5.461,5.461,0,0,0,262.832,220.365Z" transform="translate(-638.839 -599.194)" fill="#fff" opacity="0.33"/>
      <g id="Group_3943" data-name="Group 3943" transform="translate(-381.028 -389.839)">
        <path id="Path_10624" data-name="Path 10624" d="M261.078,127.164c0-.03-.008-.057-.01-.084-.017-.132-.028-.24-.035-.312h0l.033.449s-.045-.042-.122-.109a.574.574,0,0,1-.239.449c-.247.127-.674-.077-.731-.106.056.019.412.131.526-.13a1.481,1.481,0,0,0,.106-.5,2.572,2.572,0,0,0-.757-.445c-.449-.116-.461.253-.461.253a.341.341,0,0,1,.26-.449c.305-.1.992.263,1.264.418-.012-.018-.027-.038-.043-.06,0,0,0,0,0,0a.186.186,0,0,0-.016-.023c-.01-.012-.019-.025-.029-.038l-.016-.023c-.125-.172-.289-.4-.458-.64h0c-.035-.05-.072-.1-.108-.154a1.058,1.058,0,0,0-.629-.244c-.468.034-.713.83-.469,1.6s1.212,1.619,1.771,1.445a.5.5,0,0,0,.055-.022h0a.515.515,0,0,0,.287-.325A8.787,8.787,0,0,1,261.078,127.164Zm-1.853-.759s0-.786.339-.811.746.382.746.382l.188.335s-.567-.339-.835-.262A.894.894,0,0,0,259.226,126.4Z" transform="translate(-259.045 -125.419)" fill="#fff"/>
        <path id="Path_10625" data-name="Path 10625" d="M263.488,132.39l.04.546s-.045-.042-.122-.109-.2-.177-.338-.282a2.571,2.571,0,0,0-.757-.445c-.449-.116-.461.253-.461.253a.341.341,0,0,1,.26-.449c.305-.1.992.263,1.264.418h0a0,0,0,0,0,0,0Z" transform="translate(-261.508 -131.138)" fill="#fff"/>
        <path id="Path_10626" data-name="Path 10626" d="M268.027,136.548a1.23,1.23,0,0,1-.01.157.575.575,0,0,1-.239.449c-.247.127-.674-.077-.731-.106.056.019.412.131.526-.13a1.48,1.48,0,0,0,.106-.5c0-.09,0-.149,0-.149Z" transform="translate(-266.119 -135.014)" fill="#fff"/>
        <path id="Path_10627" data-name="Path 10627" d="M261.878,127.635s-.567-.339-.835-.262a.894.894,0,0,0-.437.355s-.005-.786.339-.811.746.382.746.382Z" transform="translate(-260.424 -126.743)" fill="#fff"/>
      </g>
    </g>
  </g>
</svg>
