<svg id="icons" height="512" viewBox="0 0 48 48" width="512" xmlns="http://www.w3.org/2000/svg"><path d="m41 10h-1v-2a4 4 0 0 0 -4-4h-28a4 4 0 0 0 -4 4v6a4 4 0 0 0 4 4h28a4 4 0 0 0 4-4v-2h1a1 1 0 0 1 1 1v6a1 1 0 0 1 -1 1h-17a3 3 0 0 0 -3 3v2.51a7.71 7.71 0 0 0 -3 6.1v10.39a3 3 0 0 0 3 3h2a3 3 0 0 0 3-3v-10.39a7.71 7.71 0 0 0 -3-6.1v-2.51a1 1 0 0 1 1-1h17a3 3 0 0 0 3-3v-6a3 3 0 0 0 -3-3zm-3 4a2 2 0 0 1 -2 2h-28a2 2 0 0 1 -2-2v-6a2 2 0 0 1 2-2h28a2 2 0 0 1 2 2zm-14 17.61v10.39a1 1 0 0 1 -1 1h-2a1 1 0 0 1 -1-1v-10.39a5.74 5.74 0 0 1 2-4.36 5.74 5.74 0 0 1 2 4.36z"/></svg>